<svg xmlns="http://www.w3.org/2000/svg" xmlns:xlink="http://www.w3.org/1999/xlink" version="1.1" x="0px" y="0px" width="100px" height="100px" viewBox="0 0 100 100" enable-background="new 0 0 100 100" xml:space="preserve">
<g id="Captions">
</g>
<g id="Your_Icon">
	<path d="M96.35,72.956c-0.098-0.059-0.205-0.087-0.307-0.136c-1.693-19.338-6.004-37.417-16.732-53.703   c0.381-2.314-0.633-4.694-2.742-5.9c-2.734-1.564-6.252-0.558-7.857,2.248c-0.424,0.744-0.66,1.536-0.748,2.331   c-9.672,1.93-19.275,4.859-26.48,11.353c-0.077-0.05-0.143-0.114-0.222-0.16c-2.735-1.565-6.254-0.558-7.858,2.248   c-0.625,1.092-0.858,2.293-0.761,3.447C21.501,40.801,11.348,48.341,5.975,59.77c-1.686,0.271-3.256,1.267-4.184,2.889   c-1.606,2.809-0.689,6.35,2.045,7.915c2.734,1.563,6.252,0.557,7.857-2.25c0.06-0.104,0.092-0.219,0.146-0.325   c10.83-1.565,18.835,3.688,25.743,11.607c-1.412,2.764-0.495,6.141,2.16,7.659c2.731,1.562,6.252,0.555,7.856-2.251   c0.401-0.699,0.645-1.444,0.743-2.193c12.039-6.106,25.849-5.999,39.382-4.731c-0.023,2.02,0.967,3.976,2.812,5.028   c2.732,1.563,6.252,0.56,7.855-2.248C100,78.062,99.084,74.519,96.35,72.956z M46.685,50.155c-1.26-3.862-2.954-7.695-4.92-11.485   c0.454-0.351,0.844-0.793,1.193-1.278c11.17-0.87,24.016,2.342,30.51,12.952c-0.221,0.468-0.379,0.943-0.473,1.432   C64.229,50.651,55.359,49.868,46.685,50.155z M70.756,23.379c1.129,0.646,2.385,0.833,3.59,0.655   c2.486,7.503,2.902,15.265,2.357,23.303c-0.262,0.099-0.516,0.208-0.762,0.344C68.834,36.69,56.496,31.79,44.073,33.947   c0-0.693-0.123-1.367-0.359-2.008c6.708-6.193,15.902-8.867,24.992-10.645C69.184,22.134,69.861,22.868,70.756,23.379z    M81.516,47.671c-0.387-0.223-0.791-0.379-1.205-0.499c0.521-8.013,0.076-15.746-2.219-23.228   c8.154,13.55,12.043,28.248,13.852,43.935c-1.986-4.769-4.621-9.111-8.059-13.017C84.975,52.194,84.025,49.104,81.516,47.671z    M34.068,37.997c0.394,0.442,0.839,0.844,1.379,1.152c0.908,0.521,1.905,0.733,2.891,0.712c1.829,3.465,3.43,6.959,4.651,10.479   c-11.558,0.814-22.675,3.76-32.614,10.59c-0.221-0.181-0.447-0.356-0.701-0.503C14.769,50.274,24.008,43.53,34.068,37.997z    M12.363,64.296c-0.024-0.124-0.031-0.248-0.06-0.372c9.61-6.687,20.482-9.432,31.756-10.108   c2.002,7.417,2.099,14.952-1.146,22.577c-0.986-0.024-1.968,0.195-2.845,0.662C32.568,68.608,23.808,63.021,12.363,64.296z    M47.582,79.146c-0.328-0.565-0.747-1.075-1.271-1.503c3.397-8.055,3.401-16.074,1.396-23.976   c8.538-0.193,17.243,0.662,25.758,1.771c0.479,0.975,1.232,1.819,2.238,2.396c1.889,1.082,4.143,0.909,5.893-0.213   c3.904,4.592,6.646,9.9,8.535,15.753c-0.455,0.338-0.857,0.756-1.213,1.228C74.799,73.225,60.246,73.021,47.582,79.146z"/>
</g>
</svg>